<svg width="46" height="37" viewBox="0 0 46 37" fill="none" xmlns="http://www.w3.org/2000/svg">
<g clip-path="url(#clip0_85_405)">
<path d="M44.4726 17.0771C44.1522 17.0752 43.8405 16.9806 43.581 16.8067L22.9508 3.17361L2.32065 16.8067C1.98968 16.9881 1.59724 17.0481 1.22082 16.9748C0.844395 16.9015 0.511335 16.7003 0.28739 16.4107C0.0634439 16.1212 -0.0351131 15.7645 0.0111748 15.411C0.0574628 15.0575 0.245232 14.7329 0.537414 14.5013L22.0592 0.270529C22.3195 0.0989284 22.6312 0.00671387 22.9508 0.00671387C23.2704 0.00671387 23.5821 0.0989284 23.8424 0.270529L45.3642 14.5013C45.6267 14.6772 45.8224 14.9254 45.9234 15.2104C46.0244 15.4954 46.0256 15.8026 45.9267 16.0883C45.8278 16.3739 45.634 16.6234 45.3728 16.8009C45.1117 16.9785 44.7966 17.0751 44.4726 17.0771Z" fill="#A9A6A6"/>
<path d="M6.04081 8.53846C5.6331 8.53846 5.24209 8.38853 4.9538 8.12165C4.6655 7.85477 4.50354 7.49281 4.50354 7.11539V1.42308C4.50354 1.04565 4.6655 0.683688 4.9538 0.41681C5.24209 0.149931 5.6331 0 6.04081 0H12.1899C12.5976 0 12.9886 0.149931 13.2769 0.41681C13.5652 0.683688 13.7272 1.04565 13.7272 1.42308C13.7272 1.8005 13.5652 2.16247 13.2769 2.42934C12.9886 2.69622 12.5976 2.84615 12.1899 2.84615H7.57808V7.11539C7.57808 7.49281 7.41612 7.85477 7.12782 8.12165C6.83953 8.38853 6.44852 8.53846 6.04081 8.53846Z" fill="#A9A6A6"/>
<path d="M36.7862 37H29.0999C28.6921 37 28.3011 36.8501 28.0128 36.5832C27.7245 36.3163 27.5626 35.9543 27.5626 35.5769V25.6154H18.339V35.5769C18.339 35.9543 18.177 36.3163 17.8887 36.5832C17.6004 36.8501 17.2094 37 16.8017 37H9.11535C7.89222 37 6.71919 36.5502 5.85431 35.7496C4.98943 34.9489 4.50354 33.863 4.50354 32.7308V18.5C4.50354 18.1226 4.6655 17.7606 4.9538 17.4937C5.24209 17.2268 5.6331 17.0769 6.04081 17.0769C6.44852 17.0769 6.83953 17.2268 7.12782 17.4937C7.41612 17.7606 7.57808 18.1226 7.57808 18.5V32.7308C7.57808 33.1082 7.74004 33.4701 8.02834 33.737C8.31663 34.0039 8.70764 34.1538 9.11535 34.1538H15.2644V24.1923C15.2644 23.8149 15.4264 23.4529 15.7147 23.186C16.003 22.9191 16.394 22.7692 16.8017 22.7692H29.0999C29.5076 22.7692 29.8986 22.9191 30.1869 23.186C30.4752 23.4529 30.6371 23.8149 30.6371 24.1923V34.1538H36.7862C37.1939 34.1538 37.5849 34.0039 37.8732 33.737C38.1615 33.4701 38.3235 33.1082 38.3235 32.7308V18.5C38.3235 18.1226 38.4854 17.7606 38.7737 17.4937C39.062 17.2268 39.453 17.0769 39.8607 17.0769C40.2685 17.0769 40.6595 17.2268 40.9478 17.4937C41.2361 17.7606 41.398 18.1226 41.398 18.5V32.7308C41.398 33.863 40.9121 34.9489 40.0472 35.7496C39.1824 36.5502 38.0093 37 36.7862 37Z" fill="#A9A6A6"/>
</g>
<defs>
<clipPath id="clip0_85_405">
<rect width="46" height="37" fill="white"/>
</clipPath>
</defs>
</svg>
